<svg width="1640" height="1060" viewBox="0 0 1640 1060" fill="none" xmlns="http://www.w3.org/2000/svg">
<g opacity="0.6" clip-path="url(#clip0_453_3613)">
<path d="M0 -40V1060" stroke="white" stroke-opacity="0.1" stroke-width="0.67"/>
<path d="M20 -40V1060" stroke="white" stroke-opacity="0.1" stroke-width="0.67"/>
<path d="M40 -40V1060" stroke="white" stroke-opacity="0.1" stroke-width="0.67"/>
<path d="M60 -40V1060" stroke="white" stroke-opacity="0.1" stroke-width="0.67"/>
<path d="M80 -40V1060" stroke="white" stroke-opacity="0.1" stroke-width="0.67"/>
<path d="M100 -40V1060" stroke="white" stroke-opacity="0.1" stroke-width="0.67"/>
<path d="M120 -40V1060" stroke="white" stroke-opacity="0.1" stroke-width="0.67"/>
<path d="M140 -40V1060" stroke="white" stroke-opacity="0.1" stroke-width="0.67"/>
<path d="M160 -40V1060" stroke="white" stroke-opacity="0.1" stroke-width="0.67"/>
<path d="M180 -40V1060" stroke="white" stroke-opacity="0.1" stroke-width="0.67"/>
<path d="M200 -40V1060" stroke="white" stroke-opacity="0.1" stroke-width="0.67"/>
<path d="M220 -40V1060" stroke="white" stroke-opacity="0.1" stroke-width="0.67"/>
<path d="M240 -40V1060" stroke="white" stroke-opacity="0.1" stroke-width="0.67"/>
<path d="M260 -40V1060" stroke="white" stroke-opacity="0.1" stroke-width="0.67"/>
<path d="M280 -40V1060" stroke="white" stroke-opacity="0.1" stroke-width="0.67"/>
<path d="M300 -40V1060" stroke="white" stroke-opacity="0.1" stroke-width="0.67"/>
<path d="M320 -40V1060" stroke="white" stroke-opacity="0.1" stroke-width="0.67"/>
<path d="M340 -40V1060" stroke="white" stroke-opacity="0.1" stroke-width="0.67"/>
<path d="M360 -40V1060" stroke="white" stroke-opacity="0.1" stroke-width="0.67"/>
<path d="M380 -40V1060" stroke="white" stroke-opacity="0.1" stroke-width="0.67"/>
<path d="M400 -40V1060" stroke="white" stroke-opacity="0.1" stroke-width="0.67"/>
<path d="M420 -40V1060" stroke="white" stroke-opacity="0.1" stroke-width="0.67"/>
<path d="M440 -40V1060" stroke="white" stroke-opacity="0.1" stroke-width="0.67"/>
<path d="M460 -40V1060" stroke="white" stroke-opacity="0.1" stroke-width="0.67"/>
<path d="M480 -40V1060" stroke="white" stroke-opacity="0.1" stroke-width="0.67"/>
<path d="M500 -40V1060" stroke="white" stroke-opacity="0.1" stroke-width="0.67"/>
<path d="M520 -40V1060" stroke="white" stroke-opacity="0.1" stroke-width="0.67"/>
<path d="M540 -40V1060" stroke="white" stroke-opacity="0.1" stroke-width="0.67"/>
<path d="M560 -40V1060" stroke="white" stroke-opacity="0.1" stroke-width="0.67"/>
<path d="M580 -40V1060" stroke="white" stroke-opacity="0.1" stroke-width="0.67"/>
<path d="M600 -40V1060" stroke="white" stroke-opacity="0.1" stroke-width="0.67"/>
<path d="M620 -40V1060" stroke="white" stroke-opacity="0.1" stroke-width="0.67"/>
<path d="M640 -40V1060" stroke="white" stroke-opacity="0.1" stroke-width="0.67"/>
<path d="M660 -40V1060" stroke="white" stroke-opacity="0.1" stroke-width="0.67"/>
<path d="M680 -40V1060" stroke="white" stroke-opacity="0.1" stroke-width="0.67"/>
<path d="M700 -40V1060" stroke="white" stroke-opacity="0.1" stroke-width="0.67"/>
<path d="M720 -40V1060" stroke="white" stroke-opacity="0.1" stroke-width="0.67"/>
<path d="M740 -40V1060" stroke="white" stroke-opacity="0.1" stroke-width="0.67"/>
<path d="M760 -40V1060" stroke="white" stroke-opacity="0.1" stroke-width="0.67"/>
<path d="M780 -40V1060" stroke="white" stroke-opacity="0.1" stroke-width="0.67"/>
<path d="M800 -40V1060" stroke="white" stroke-opacity="0.1" stroke-width="0.67"/>
<path d="M820 -40V1060" stroke="white" stroke-opacity="0.1" stroke-width="0.67"/>
<path d="M840 -40V1060" stroke="white" stroke-opacity="0.1" stroke-width="0.67"/>
<path d="M860 -40V1060" stroke="white" stroke-opacity="0.1" stroke-width="0.67"/>
<path d="M880 -40V1060" stroke="white" stroke-opacity="0.1" stroke-width="0.67"/>
<path d="M900 -40V1060" stroke="white" stroke-opacity="0.1" stroke-width="0.67"/>
<path d="M920 -40V1060" stroke="white" stroke-opacity="0.1" stroke-width="0.67"/>
<path d="M940 -40V1060" stroke="white" stroke-opacity="0.1" stroke-width="0.67"/>
<path d="M960 -40V1060" stroke="white" stroke-opacity="0.1" stroke-width="0.67"/>
<path d="M980 -40V1060" stroke="white" stroke-opacity="0.1" stroke-width="0.67"/>
<path d="M1000 -40V1060" stroke="white" stroke-opacity="0.1" stroke-width="0.67"/>
<path d="M1020 -40V1060" stroke="white" stroke-opacity="0.1" stroke-width="0.67"/>
<path d="M1040 -40V1060" stroke="white" stroke-opacity="0.1" stroke-width="0.67"/>
<path d="M1060 -40V1060" stroke="white" stroke-opacity="0.1" stroke-width="0.67"/>
<path d="M1080 -40V1060" stroke="white" stroke-opacity="0.1" stroke-width="0.67"/>
<path d="M1100 -40V1060" stroke="white" stroke-opacity="0.1" stroke-width="0.67"/>
<path d="M1120 -40V1060" stroke="white" stroke-opacity="0.1" stroke-width="0.67"/>
<path d="M1140 -40V1060" stroke="white" stroke-opacity="0.1" stroke-width="0.67"/>
<path d="M1160 -40V1060" stroke="white" stroke-opacity="0.1" stroke-width="0.67"/>
<path d="M1180 -40V1060" stroke="white" stroke-opacity="0.1" stroke-width="0.67"/>
<path d="M1200 -40V1060" stroke="white" stroke-opacity="0.1" stroke-width="0.67"/>
<path d="M1220 -40V1060" stroke="white" stroke-opacity="0.1" stroke-width="0.67"/>
<path d="M1240 -40V1060" stroke="white" stroke-opacity="0.1" stroke-width="0.67"/>
<path d="M1260 -40V1060" stroke="white" stroke-opacity="0.1" stroke-width="0.67"/>
<path d="M1280 -40V1060" stroke="white" stroke-opacity="0.1" stroke-width="0.67"/>
<path d="M1300 -40V1060" stroke="white" stroke-opacity="0.1" stroke-width="0.67"/>
<path d="M1320 -40V1060" stroke="white" stroke-opacity="0.1" stroke-width="0.67"/>
<path d="M1340 -40V1060" stroke="white" stroke-opacity="0.1" stroke-width="0.67"/>
<path d="M1360 -40V1060" stroke="white" stroke-opacity="0.1" stroke-width="0.67"/>
<path d="M1380 -40V1060" stroke="white" stroke-opacity="0.1" stroke-width="0.67"/>
<path d="M1400 -40V1060" stroke="white" stroke-opacity="0.1" stroke-width="0.67"/>
<path d="M1420 -40V1060" stroke="white" stroke-opacity="0.1" stroke-width="0.67"/>
<path d="M1440 -40V1060" stroke="white" stroke-opacity="0.1" stroke-width="0.67"/>
<path d="M1460 -40V1060" stroke="white" stroke-opacity="0.1" stroke-width="0.67"/>
<path d="M1480 -40V1060" stroke="white" stroke-opacity="0.1" stroke-width="0.67"/>
<path d="M1500 -40V1060" stroke="white" stroke-opacity="0.1" stroke-width="0.67"/>
<path d="M1520 -40V1060" stroke="white" stroke-opacity="0.1" stroke-width="0.67"/>
<path d="M1540 -40V1060" stroke="white" stroke-opacity="0.1" stroke-width="0.67"/>
<path d="M1560 -40V1060" stroke="white" stroke-opacity="0.1" stroke-width="0.67"/>
<path d="M1580 -40V1060" stroke="white" stroke-opacity="0.1" stroke-width="0.67"/>
<path d="M1600 -40V1060" stroke="white" stroke-opacity="0.1" stroke-width="0.67"/>
<path d="M1620 -40V1060" stroke="white" stroke-opacity="0.1" stroke-width="0.67"/>
<path d="M1640 -40V1060" stroke="white" stroke-opacity="0.1" stroke-width="0.67"/>
<path d="M-140 0H1860" stroke="white" stroke-opacity="0.1" stroke-width="0.67"/>
<path d="M-140 20H1860" stroke="white" stroke-opacity="0.1" stroke-width="0.67"/>
<path d="M-140 40H1860" stroke="white" stroke-opacity="0.1" stroke-width="0.67"/>
<path d="M-140 60H1860" stroke="white" stroke-opacity="0.1" stroke-width="0.67"/>
<path d="M-140 80H1860" stroke="white" stroke-opacity="0.1" stroke-width="0.67"/>
<path d="M-140 100H1860" stroke="white" stroke-opacity="0.1" stroke-width="0.67"/>
<path d="M-140 120H1860" stroke="white" stroke-opacity="0.1" stroke-width="0.67"/>
<path d="M-140 140H1860" stroke="white" stroke-opacity="0.1" stroke-width="0.67"/>
<path d="M-140 160H1860" stroke="white" stroke-opacity="0.1" stroke-width="0.67"/>
<path d="M-140 180H1860" stroke="white" stroke-opacity="0.1" stroke-width="0.67"/>
<path d="M-140 200H1860" stroke="white" stroke-opacity="0.1" stroke-width="0.67"/>
<path d="M-140 220H1860" stroke="white" stroke-opacity="0.1" stroke-width="0.67"/>
<path d="M-140 240H1860" stroke="white" stroke-opacity="0.1" stroke-width="0.67"/>
<path d="M-140 260H1860" stroke="white" stroke-opacity="0.1" stroke-width="0.67"/>
<path d="M-140 280H1860" stroke="white" stroke-opacity="0.1" stroke-width="0.67"/>
<path d="M-140 300H1860" stroke="white" stroke-opacity="0.1" stroke-width="0.67"/>
<path d="M-140 320H1860" stroke="white" stroke-opacity="0.1" stroke-width="0.67"/>
<path d="M-140 340H1860" stroke="white" stroke-opacity="0.1" stroke-width="0.67"/>
<path d="M-140 360H1860" stroke="white" stroke-opacity="0.1" stroke-width="0.67"/>
<path d="M-140 380H1860" stroke="white" stroke-opacity="0.1" stroke-width="0.67"/>
<path d="M-140 400H1860" stroke="white" stroke-opacity="0.1" stroke-width="0.67"/>
<path d="M-140 420H1860" stroke="white" stroke-opacity="0.1" stroke-width="0.67"/>
<path d="M-140 440H1860" stroke="white" stroke-opacity="0.1" stroke-width="0.67"/>
<path d="M-140 460H1860" stroke="white" stroke-opacity="0.1" stroke-width="0.67"/>
<path d="M-140 480H1860" stroke="white" stroke-opacity="0.1" stroke-width="0.67"/>
<path d="M-140 500H1860" stroke="white" stroke-opacity="0.1" stroke-width="0.67"/>
<path d="M-140 520H1860" stroke="white" stroke-opacity="0.1" stroke-width="0.67"/>
<path d="M-140 540H1860" stroke="white" stroke-opacity="0.1" stroke-width="0.67"/>
<path d="M-140 560H1860" stroke="white" stroke-opacity="0.1" stroke-width="0.67"/>
<path d="M-140 580H1860" stroke="white" stroke-opacity="0.1" stroke-width="0.67"/>
<path d="M-140 600H1860" stroke="white" stroke-opacity="0.1" stroke-width="0.67"/>
<path d="M-140 620H1860" stroke="white" stroke-opacity="0.1" stroke-width="0.67"/>
<path d="M-140 640H1860" stroke="white" stroke-opacity="0.1" stroke-width="0.67"/>
<path d="M-140 660H1860" stroke="white" stroke-opacity="0.1" stroke-width="0.67"/>
<path d="M-140 680H1860" stroke="white" stroke-opacity="0.1" stroke-width="0.67"/>
<path d="M-140 700H1860" stroke="white" stroke-opacity="0.1" stroke-width="0.67"/>
<path d="M-140 720H1860" stroke="white" stroke-opacity="0.1" stroke-width="0.67"/>
<path d="M-140 740H1860" stroke="white" stroke-opacity="0.1" stroke-width="0.67"/>
<path d="M-140 760H1860" stroke="white" stroke-opacity="0.1" stroke-width="0.67"/>
<path d="M-140 780H1860" stroke="white" stroke-opacity="0.1" stroke-width="0.67"/>
<path d="M-140 800H1860" stroke="white" stroke-opacity="0.1" stroke-width="0.67"/>
<path d="M-140 820H1860" stroke="white" stroke-opacity="0.1" stroke-width="0.67"/>
<path d="M-140 840H1860" stroke="white" stroke-opacity="0.1" stroke-width="0.67"/>
<path d="M-140 860H1860" stroke="white" stroke-opacity="0.1" stroke-width="0.67"/>
<path d="M-140 880H1860" stroke="white" stroke-opacity="0.1" stroke-width="0.67"/>
<path d="M-140 900H1860" stroke="white" stroke-opacity="0.1" stroke-width="0.67"/>
<path d="M-140 920H1860" stroke="white" stroke-opacity="0.1" stroke-width="0.67"/>
<path d="M-140 940H1860" stroke="white" stroke-opacity="0.1" stroke-width="0.67"/>
<path d="M-140 960H1860" stroke="white" stroke-opacity="0.1" stroke-width="0.67"/>
<path d="M-140 980H1860" stroke="white" stroke-opacity="0.1" stroke-width="0.67"/>
<path d="M-140 1000H1860" stroke="white" stroke-opacity="0.1" stroke-width="0.67"/>
<path d="M-140 1020H1860" stroke="white" stroke-opacity="0.1" stroke-width="0.67"/>
<path d="M-140 1040H1860" stroke="white" stroke-opacity="0.1" stroke-width="0.67"/>
<rect x="-140" y="300" width="1920" height="760" fill="url(#paint0_linear_453_3613)"/>
</g>
<defs>
<linearGradient id="paint0_linear_453_3613" x1="1368" y1="1060" x2="1368" y2="300" gradientUnits="userSpaceOnUse">
<stop stop-color="#070913"/>
<stop offset="1" stop-color="#070913" stop-opacity="0"/>
</linearGradient>
<clipPath id="clip0_453_3613">
<rect width="1640" height="1060" fill="white"/>
</clipPath>
</defs>
</svg>
